<svg width="124" height="34" viewBox="0 0 124 34" fill="none" xmlns="http://www.w3.org/2000/svg">
<path d="M16.7625 33.4346C26.0202 33.4346 33.5251 25.95 33.5251 16.7173C33.5251 7.48458 26.0202 0 16.7625 0C7.50485 0 0 7.48458 0 16.7173C0 25.95 7.50485 33.4346 16.7625 33.4346Z" fill="white"/>
<path d="M24.4714 15.5054C21.8758 13.7474 18.5512 14.4648 16.8079 17.1083C15.3497 19.3188 13.1527 19.5934 12.3005 19.5934C9.52671 19.5934 7.6246 17.6448 7.06401 15.6315C7.05753 15.6121 7.05429 15.5959 7.04781 15.5765C7.04457 15.5539 7.03485 15.5313 7.02837 15.5087C6.80802 14.6684 6.75293 14.2677 6.75293 13.3725C6.75293 8.55416 11.7107 3.18964 18.8493 3.18964C25.9879 3.18964 30.343 8.74159 31.4188 11.8246C31.4026 11.7696 31.3864 11.7147 31.3669 11.6598C29.2931 5.62629 23.5544 1.28943 16.8014 1.28943C8.30184 1.28943 1.40629 8.16313 1.40629 16.643C1.40629 24.2212 6.88903 30.7103 14.491 30.7103C20.557 30.7103 24.6302 27.3203 26.4999 22.6473C27.5271 20.0911 26.798 17.0889 24.4714 15.5087V15.5054Z" fill="#003668"/>
<path d="M31.5192 12.1219C30.6216 9.1132 26.4059 3.18637 18.8525 3.18637C11.7139 3.18637 6.75613 8.55089 6.75613 13.3693C6.75613 14.2612 6.81121 14.6652 7.03156 15.5054C6.94083 15.137 6.88898 14.7686 6.88898 14.4099C6.88898 9.39112 11.9278 5.91387 17.1059 5.91387C24.1181 5.91387 29.7986 11.5822 29.7986 18.5722C29.7986 24.0531 26.6359 28.7971 22.0411 31.0754C27.9645 28.9393 32.1932 23.2839 32.1932 16.6397C32.1932 15.0691 31.9826 13.6795 31.516 12.1219H31.5192Z" fill="#E6002D"/>
<path d="M47.1379 22.754C47.1379 23.1095 47.0634 23.4488 46.9143 23.7687C46.7653 24.0887 46.5611 24.3731 46.3019 24.6154C46.0491 24.8513 45.7478 25.0355 45.4011 25.1745C45.2779 25.2165 45.1483 25.2585 45.009 25.2908V26.7612H48.0614V28.0248H40.5081V26.7612H43.5735V25.2908C43.4244 25.2553 43.2948 25.2165 43.1814 25.1745C42.8347 25.0355 42.5301 24.8481 42.2676 24.6154C42.0051 24.3731 41.8042 24.0919 41.6617 23.7687C41.5191 23.4488 41.4478 23.1095 41.4478 22.754C41.4478 22.3985 41.5191 22.0624 41.6617 21.7457C41.8042 21.429 42.0084 21.1511 42.2676 20.9055C42.5301 20.6631 42.8314 20.4757 43.1814 20.3464C43.5281 20.2172 43.9008 20.1525 44.2896 20.1525C44.6785 20.1525 45.0511 20.2172 45.3978 20.3464C45.7446 20.4757 46.0459 20.6631 46.2987 20.9055C46.5579 21.1479 46.762 21.429 46.9111 21.7457C47.0602 22.0624 47.1347 22.3985 47.1347 22.754H47.1379ZM43.499 18.708V17.4703H45.0641V18.708H47.8054V19.9457H40.7479V18.708H43.5022H43.499ZM45.7284 22.754C45.7284 22.3727 45.589 22.0463 45.3103 21.7716C45.0317 21.4969 44.6914 21.3612 44.2929 21.3612C43.8943 21.3612 43.554 21.4969 43.2754 21.7716C42.9967 22.0463 42.8574 22.3727 42.8574 22.754C42.8574 23.1353 42.9967 23.465 43.2754 23.7429C43.554 24.0208 43.8943 24.1598 44.2929 24.1598C44.6914 24.1598 45.0317 24.0208 45.3103 23.7429C45.589 23.465 45.7284 23.1353 45.7284 22.754ZM50.401 29.1559H48.9525V17.5478H50.401V22.4276H51.8883V23.7817H50.401V29.1559Z" fill="white"/>
<path d="M59.4546 18.2781V19.5255H52.6692V18.2781H55.3296V17.3151H56.8558V18.2781H59.4546ZM53.1553 25.2003H62.3126V29.0524H60.8771V26.4768H53.152V25.2035L53.1553 25.2003ZM58.7903 22.2207C58.7903 22.56 58.719 22.88 58.5732 23.1838C58.4306 23.4875 58.2394 23.7525 58.0061 23.9787C57.7534 24.1952 57.465 24.3698 57.1442 24.5055C56.8234 24.6412 56.4734 24.7059 56.1008 24.7059C55.7281 24.7059 55.3782 24.638 55.0509 24.5055C54.7236 24.3698 54.4385 24.1952 54.1954 23.9787C53.9524 23.7525 53.758 23.4875 53.6154 23.1838C53.4728 22.88 53.3983 22.56 53.3983 22.2207C53.3983 21.8814 53.4696 21.5647 53.6154 21.2642C53.758 20.9636 53.9524 20.7018 54.1954 20.4756C54.4385 20.2591 54.7236 20.0846 55.0509 19.9489C55.3782 19.8131 55.7281 19.7453 56.1008 19.7453C56.4734 19.7453 56.8234 19.8131 57.1442 19.9489C57.465 20.0846 57.7534 20.2591 58.0061 20.4756C58.2394 20.7018 58.4306 20.9636 58.5732 21.2642C58.7158 21.5647 58.7903 21.8814 58.7903 22.2207ZM57.4067 22.2078C57.4067 21.862 57.277 21.5647 57.021 21.3159C56.7651 21.0703 56.4572 20.9442 56.1008 20.9442C55.7443 20.9442 55.4397 21.067 55.187 21.3159C54.9342 21.5647 54.8079 21.862 54.8079 22.2078C54.8079 22.5536 54.9342 22.8541 55.187 23.1062C55.4397 23.3583 55.7443 23.4843 56.1008 23.4843C56.4572 23.4843 56.7651 23.3583 57.021 23.1062C57.277 22.8541 57.4067 22.5568 57.4067 22.2078ZM62.3126 24.5475H60.8771V17.5478H62.3126V20.2688H63.9846V21.6875H62.3126V24.5507V24.5475Z" fill="white"/>
<path d="M69.6845 24.1339V23.326H65.067V22.1432H75.7667V23.326H71.133V24.1339H74.9048V27.0747H67.3514V27.7759H75.0636V28.962H65.9289V25.9436H73.4693V25.2811H65.9289V24.1371H69.6878L69.6845 24.1339ZM65.9257 17.69H74.9016V21.3741H65.9257V17.69ZM73.4693 18.8631H67.3514V20.2171H73.4693V18.8631Z" fill="white"/>
<path d="M77.212 19.1216V17.8839H83.8937V19.1216H81.0616L84.0103 22.1141L83.0836 22.9867L80.5917 20.3981L78.1776 23.0771L77.199 22.2046L80.1348 19.1216H77.212ZM78.3072 23.5974H87.4549V26.7741H79.7557V27.7501H87.5845V28.92H78.3072V25.6915H86.0064V24.7285H78.3072V23.5974ZM86.0064 17.5478H87.4549V23.0513H86.0064V17.5478Z" fill="white"/>
<path d="M95.7665 20.8021C95.7665 21.2351 95.679 21.6455 95.504 22.0269C95.329 22.4082 95.0892 22.7475 94.7879 23.0416C94.4833 23.3292 94.1333 23.5554 93.738 23.7235C93.3427 23.8915 92.9182 23.9755 92.4645 23.9755C92.0109 23.9755 91.5864 23.8915 91.1846 23.7235C90.7828 23.5554 90.436 23.326 90.1412 23.0416C89.8366 22.7475 89.5968 22.4082 89.425 22.0269C89.2501 21.6455 89.1626 21.2383 89.1626 20.8021C89.1626 20.3658 89.2501 19.9618 89.425 19.5805C89.6 19.1992 89.8366 18.8599 90.1412 18.5658C90.436 18.2782 90.786 18.0519 91.1846 17.8807C91.5864 17.7126 92.0109 17.6286 92.4645 17.6286C92.9182 17.6286 93.3394 17.7126 93.738 17.8807C94.1333 18.0487 94.4833 18.2782 94.7879 18.5658C95.0925 18.8599 95.3323 19.1992 95.504 19.5805C95.679 19.9618 95.7665 20.369 95.7665 20.8021ZM91.3434 25.042V27.6435H99.1721V28.92H89.8949V25.042H91.3434ZM94.3699 20.815C94.3699 20.5532 94.318 20.3109 94.2208 20.0782C94.1204 19.8487 93.9843 19.6419 93.8093 19.4609C93.6343 19.2961 93.4334 19.1604 93.2033 19.057C92.9733 18.9536 92.7302 18.9019 92.4807 18.9019C92.2312 18.9019 91.9752 18.9536 91.7452 19.057C91.5151 19.1604 91.3077 19.2961 91.1262 19.4609C90.961 19.6419 90.8249 19.8487 90.7212 20.0782C90.6175 20.3076 90.5657 20.5532 90.5657 20.815C90.5657 21.0768 90.6175 21.3191 90.7212 21.5421C90.8249 21.7683 90.961 21.9687 91.1262 22.14C91.3077 22.3145 91.5151 22.4502 91.7452 22.5504C91.9752 22.6506 92.2215 22.699 92.4807 22.699C92.74 22.699 92.9733 22.6506 93.2033 22.5504C93.4334 22.4502 93.6375 22.3145 93.8093 22.14C93.9843 21.9655 94.1204 21.7683 94.2208 21.5421C94.3213 21.3159 94.3699 21.0735 94.3699 20.815ZM98.8708 24.9774H97.4353V17.5478H98.8708V20.0846H100.543V21.5033H98.8708V24.9774Z" fill="white"/>
<path d="M101.586 17.8839H108.268V19.1216H105.436L108.385 23.4682L107.302 24.1985L104.979 20.6987L102.681 24.289L101.573 23.5619L104.522 19.1248H101.586V17.8839ZM102.393 28.92V25.042H103.829V27.6435H111.93V28.92H102.393ZM110.381 24.9774V21.555H108.216V20.2818H110.381V17.5478H111.829V24.9774H110.381Z" fill="white"/>
<path d="M121.495 24.5217H118.417V26.2764H116.968V24.5217H113.757V23.2452H121.495V24.5217ZM114.554 28.9587V25.6398H115.99V27.6951H124V28.9587H114.554ZM120.465 20.0975C120.465 20.4724 120.387 20.8182 120.228 21.1381C120.073 21.4581 119.869 21.7457 119.616 21.9977C119.347 22.2401 119.036 22.4308 118.683 22.5697C118.329 22.7087 117.953 22.7766 117.555 22.7766C117.156 22.7766 116.78 22.7087 116.427 22.5697C116.074 22.4308 115.763 22.2401 115.494 21.9977C115.241 21.7457 115.037 21.4613 114.882 21.1381C114.726 20.8182 114.648 20.4692 114.648 20.0975C114.648 19.7259 114.726 19.3769 114.882 19.0505C115.037 18.7241 115.241 18.4365 115.494 18.1844C115.763 17.942 116.074 17.7514 116.427 17.6124C116.78 17.4734 117.156 17.4056 117.555 17.4056C117.953 17.4056 118.333 17.4734 118.683 17.6124C119.036 17.7514 119.347 17.942 119.616 18.1844C119.869 18.4365 120.073 18.7241 120.228 19.0505C120.384 19.3769 120.465 19.7259 120.465 20.0975ZM119.068 20.0975C119.068 19.6807 118.919 19.3316 118.618 19.0505C118.316 18.7693 117.963 18.6271 117.555 18.6271C117.147 18.6271 116.793 18.7693 116.492 19.0505C116.191 19.3316 116.042 19.6807 116.042 20.0975C116.042 20.5144 116.191 20.8505 116.492 21.1317C116.793 21.4128 117.147 21.555 117.555 21.555C117.963 21.555 118.32 21.4128 118.618 21.1317C118.919 20.8505 119.068 20.5047 119.068 20.0975ZM122.422 17.5478H123.857V26.4089H122.422V22.127H120.805V20.8764H122.422V17.5445V17.5478Z" fill="white"/>
<path d="M40.5112 5.01549H44.4807V11.3495H43.4017V5.9559H40.5112V5.01549Z" fill="white"/>
<path d="M47.449 4.56305H46.3764V12.403H47.449V4.56305Z" fill="white"/>
<path d="M68.8 7.37784H70.9354V4.60186H71.9269V12.403H70.9289V8.24715H68.8V7.37784Z" fill="white"/>
<path d="M65.3749 4.95084H66.3503V10.4252H69.5874V11.2687H65.3652L65.3749 4.95084Z" fill="white"/>
<path d="M80.1024 4.56305H79.0298V12.403H80.1024V4.56305Z" fill="white"/>
<path d="M73.0611 5.02522H77.9411V5.92684H75.9807V6.15306L78.061 10.9941L77.2444 11.3883L75.5626 7.56205L73.8614 11.453L73.0319 11.0393L74.9859 6.14013V5.93331H73.0578L73.0611 5.02522Z" fill="white"/>
<path d="M97.7691 9.45901V10.4705H100.854V12.4289H101.881L101.891 10.4802H105.054L105.041 9.45901H97.7691Z" fill="white"/>
<path d="M103.401 4.65679V5.66829H99.3925V4.65679H98.3264V8.55092H104.477V4.65679H103.401ZM103.424 7.5685H99.3957V6.58931H103.424V7.5685Z" fill="white"/>
<path d="M51.7587 4.41443V5.27404H49.1567V6.17567H55.4301V5.29666H52.8767V4.41443H51.7587Z" fill="white"/>
<path d="M48.6577 9.67549V10.6838H51.7425V12.403H52.7697L52.7827 10.6967H55.9421L55.9291 9.67549H48.6577Z" fill="white"/>
<path d="M52.2999 5.34515C51.1528 5.34515 50.2228 6.208 50.2228 7.27444C50.2228 8.34089 51.1528 9.20373 52.2999 9.20373C53.447 9.20373 54.377 8.34089 54.377 7.27444C54.377 6.208 53.447 5.34515 52.2999 5.34515ZM52.3161 8.33765C51.7296 8.33765 51.2565 7.8626 51.2565 7.28091C51.2565 6.69921 51.7329 6.22416 52.3161 6.22416C52.8994 6.22416 53.3757 6.69921 53.3757 7.28091C53.3757 7.8626 52.8994 8.33765 52.3161 8.33765Z" fill="white"/>
<path d="M83.3299 4.27868V5.1383H81.3954V6.03993H86.3046V5.16092H84.4478V4.27868H83.3299Z" fill="white"/>
<path d="M89.0395 6.89631H87.9896V4.59538H86.9948V10.2895H87.996V7.81409H89.0395V6.89631Z" fill="white"/>
<path d="M83.4174 8.54444V8.92901H81.243V9.80801H86.4471V8.92255H84.3376V8.54444H83.4174Z" fill="white"/>
<path d="M81.8393 10.3089H82.8697V11.3915H88.1451V12.3125H81.8263L81.8393 10.3089Z" fill="white"/>
<path d="M83.8775 5.36128C82.8179 5.36128 81.9592 6.08517 81.9592 6.97387C81.9592 7.86257 82.8179 8.58645 83.8775 8.58645C84.9371 8.58645 85.7958 7.86257 85.7958 6.97387C85.7958 6.08517 84.9371 5.36128 83.8775 5.36128ZM83.9002 7.82702C83.4173 7.82702 83.0252 7.43599 83.0252 6.95448C83.0252 6.47296 83.4173 6.08193 83.9002 6.08193C84.383 6.08193 84.7751 6.47296 84.7751 6.95448C84.7751 7.43599 84.383 7.82702 83.9002 7.82702Z" fill="white"/>
<path d="M89.6907 4.74081H93.6051V8.55091H92.5293V5.67798H89.6907V4.74081Z" fill="white"/>
<path d="M95.4554 4.50488V5.37096H94.1722V6.23704H95.4489V6.92215H94.1722V7.79146H95.4489V8.74479H96.5377V4.50488H95.4554Z" fill="white"/>
<path d="M94.1527 8.74484C93.0315 8.74484 92.121 9.62385 92.121 10.7097C92.121 11.7955 93.0315 12.6745 94.1527 12.6745C95.2739 12.6745 96.1844 11.7955 96.1844 10.7097C96.1844 9.62385 95.2739 8.74484 94.1527 8.74484ZM94.1624 11.8149C93.5597 11.8149 93.0704 11.3269 93.0704 10.7258C93.0704 10.1248 93.5597 9.63677 94.1624 9.63677C94.7651 9.63677 95.2544 10.1248 95.2544 10.7258C95.2544 11.3269 94.7651 11.8149 94.1624 11.8149Z" fill="white"/>
<path d="M60.9809 7.37784H61.6387V4.60186H62.6303V12.403H61.6322V8.24715H60.9809V7.37784Z" fill="white"/>
<path d="M63.1941 4.60186H64.1889V12.403H63.1876" fill="white"/>
<path d="M58.7385 5.58428C57.4423 5.58428 56.3924 6.59901 56.3924 7.85289C56.3924 9.10677 57.4423 10.1215 58.7385 10.1215C60.0346 10.1215 61.0845 9.10677 61.0845 7.85289C61.0845 6.59901 60.0346 5.58428 58.7385 5.58428ZM58.7612 9.17786C58.0224 9.17786 57.4229 8.57354 57.4229 7.8238C57.4229 7.07406 58.0224 6.46975 58.7612 6.46975C59.5 6.46975 60.0995 7.07406 60.0995 7.8238C60.0995 8.57354 59.5 9.17786 58.7612 9.17786Z" fill="white"/>
</svg>
