<svg width="32" height="32" viewBox="0 0 32 32" fill="none" xmlns="http://www.w3.org/2000/svg">
<rect width="32" height="32" rx="16" fill="#02AA4E"/>
<path d="M8.88889 15.4045V8.88892H15.4044V15.4045H8.88889ZM10.5156 13.7778H13.7733V10.52H10.5156V13.7778ZM8.88889 23.5467V17.0311H15.4044V23.5467H8.88889ZM10.5156 21.92H13.7733V18.6622H10.5156V21.92ZM17.0311 15.4045V8.88892H23.5467V15.4045H17.0311ZM18.6622 13.7778H21.92V10.52H18.6622V13.7778ZM21.9156 23.5467V21.92H23.5422V23.5467H21.9156ZM17.0311 18.6622V17.0356H18.6578V18.6622H17.0311ZM18.6622 20.2934V18.6667H20.2889V20.2934H18.6622ZM17.0311 21.92V20.2934H18.6578V21.92H17.0311ZM18.6622 23.5467V21.92H20.2889V23.5467H18.6622ZM20.2889 21.92V20.2934H21.9156V21.92H20.2889ZM20.2889 18.6622V17.0356H21.9156V18.6622H20.2889ZM21.9156 20.2934V18.6667H23.5422V20.2934H21.9156Z" fill="white"/>
</svg>
