<svg width="56" height="56" viewBox="0 0 56 56" fill="none" xmlns="http://www.w3.org/2000/svg">
<rect x="2" y="2" width="52" height="52" rx="10" fill="white"/>
<rect x="2" y="2" width="52" height="52" rx="10" stroke="#02AA4E" stroke-width="4"/>
<path d="M15.1746 26.5768V15.1746H26.5768V26.5768H15.1746ZM18.0212 23.7301H23.7223V18.029H18.0212V23.7301ZM15.1746 40.8257V29.4234H26.5768V40.8257H15.1746ZM18.0212 37.979H23.7223V32.2779H18.0212V37.979ZM29.4234 26.5768V15.1746H40.8257V26.5768H29.4234ZM32.2779 23.7301H37.979V18.029H32.2779V23.7301ZM37.9712 40.8257V37.979H40.8179V40.8257H37.9712ZM29.4234 32.2779V29.4312H32.2701V32.2779H29.4234ZM32.2779 35.1323V32.2857H35.1246V35.1323H32.2779ZM29.4234 37.979V35.1323H32.2701V37.979H29.4234ZM32.2779 40.8257V37.979H35.1246V40.8257H32.2779ZM35.1246 37.979V35.1323H37.9712V37.979H35.1246ZM35.1246 32.2779V29.4312H37.9712V32.2779H35.1246ZM37.9712 35.1323V32.2857H40.8179V35.1323H37.9712Z" fill="#1F1F1F" fill-opacity="0.85"/>
</svg>
